STARTFONT 2.1
FONT jis.jis8a00.16
SIZE 16 72 72
FONTBOUNDINGBOX 16 16 0 -2
STARTPROPERTIES 4
FONT_DESCENT 2
FONT_ASCENT 14
DEFAULT_CHAR 0
COPYRIGHT "Copyright (c) 1992 AT&T - All rights reserved."
ENDPROPERTIES
CHARS 161
STARTCHAR ch-0
ENCODING 0
SWIDTH 1000 0
DWIDTH 16 0
BBX 16 16 0 -2
BITMAP
0000
1ff8
0000
ffff
0000
1ff8
0000
0000
1ff8
0000
0000
1ff8
1008
1008
1008
1ff8
ENDCHAR
STARTCHAR ch-2
ENCODING 2
SWIDTH 1000 0
DWIDTH 16 0
BBX 16 16 0 -2
BITMAP
0000
7c00
00ff
fe08
0008
7c08
0008
0008
7c08
0008
0008
7c08
4408
4408
4408
7c38
ENDCHAR
STARTCHAR ch-3
ENCODING 3
SWIDTH 1000 0
DWIDTH 16 0
BBX 16 16 0 -2
BITMAP
0010
7e10
0010
ff10
0010
7e10
001c
0016
7e13
0010
0010
7e10
4210
4210
4210
7e10
ENDCHAR
STARTCHAR ch-8
ENCODING 8
SWIDTH 1000 0
DWIDTH 16 0
BBX 16 16 0 -2
BITMAP
0010
7c10
0010
fe10
0010
7c10
01ff
0010
7c10
0010
0010
7c10
4410
4410
4410
7c10
ENDCHAR
STARTCHAR ch-10
ENCODING 10
SWIDTH 1000 0
DWIDTH 16 0
BBX 16 16 0 -2
BITMAP
0000
7dfc
0044
fe44
0044
7c44
0044
01f4
7c44
0044
0044
7c44
4444
44c5
4485
7d83
ENDCHAR
STARTCHAR ch-12
ENCODING 12
SWIDTH 1000 0
DWIDTH 16 0
BBX 16 16 0 -2
BITMAP
0000
7c00
00fe
fe10
0010
7c10
0010
0010
7c10
0010
0010
7c10
4410
4410
45ff
7c00
ENDCHAR
STARTCHAR ch-14
ENCODING 14
SWIDTH 1000 0
DWIDTH 16 0
BBX 16 16 0 -2
BITMAP
0004
7c04
0004
fe04
01ff
7c04
0004
00c4
7c64
0024
0004
7c04
4404
4404
4404
7c1c
ENDCHAR
STARTCHAR ch-16
ENCODING 16
SWIDTH 1000 0
DWIDTH 16 0
BBX 16 16 0 -2
BITMAP
0000
7cfe
0010
fe10
0010
7c10
0010
01ff
7c10
0010
0010
7c10
4410
4410
4410
7c10
ENDCHAR
STARTCHAR ch-19
ENCODING 19
SWIDTH 1000 0
DWIDTH 16 0
BBX 16 16 0 -2
BITMAP
0002
7c82
0092
fe92
0092
7c92
0092
0092
7c92
0092
0092
7c92
4492
4482
4482
7d02
ENDCHAR
STARTCHAR ch-22
ENCODING 22
SWIDTH 1000 0
DWIDTH 16 0
BBX 16 16 0 -2
BITMAP
0040
7c40
0040
feff
0080
7d80
007e
000c
7c18
0030
0060
7cc0
4480
4481
44c3
7c7e
ENDCHAR
STARTCHAR ch-23
ENCODING 23
SWIDTH 1000 0
DWIDTH 16 0
BBX 16 16 0 -2
BITMAP
0006
7c1c
00f0
fe20
0020
7c20
0020
01ff
7c20
0020
0020
7c20
4420
4421
4433
7c1e
ENDCHAR
STARTCHAR ch-24
ENCODING 24
SWIDTH 1000 0
DWIDTH 16 0
BBX 16 16 0 -2
BITMAP
0000
7cfe
0002
fe02
0002
7c02
0002
00fe
7c80
0080
0080
7c80
4480
4481
44c3
7c7e
ENDCHAR
STARTCHAR ch-27
ENCODING 27
SWIDTH 1000 0
DWIDTH 16 0
BBX 16 16 0 -2
BITMAP
0050
7850
00d0
fc92
0096
799c
0290
0090
7890
0090
0090
7890
4890
4891
4893
788e
ENDCHAR
STARTCHAR ch-29
ENCODING 29
SWIDTH 1000 0
DWIDTH 16 0
BBX 16 16 0 -2
BITMAP
0000
7cfe
0044
fe44
0044
7c44
0044
01ff
7c14
0014
0034
7c24
4464
44c4
4584
7c1c
ENDCHAR
STARTCHAR ch-31
ENCODING 31
SWIDTH 1000 0
DWIDTH 16 0
BBX 16 16 0 -2
BITMAP
0000
7c48
0048
fe4c
00c4
7c86
0082
01a3
7c20
0020
0064
7c44
4446
44c2
449e
7df3
ENDCHAR
STARTCHAR ch-35
ENCODING 35
SWIDTH 1000 0
DWIDTH 16 0
BBX 16 16 0 -2
BITMAP
0020
7820
0020
fdfc
0024
7824
0024
0024
7bff
0050
0050
7858
48c8
488c
4986
7b03
ENDCHAR
STARTCHAR ch-37
ENCODING 37
SWIDTH 1000 0
DWIDTH 16 0
BBX 16 16 0 -2
BITMAP
0020
7820
0020
fdfe
0122
7922
0122
0172
7952
015a
018a
7902
4902
4902
4902
790e
ENDCHAR
STARTCHAR ch-42
ENCODING 42
SWIDTH 1000 0
DWIDTH 16 0
BBX 16 16 0 -2
BITMAP
0010
7c10
0010
feff
0020
7c20
0020
003e
7c22
0022
0022
7c62
4446
4444
44c4
7d9c
ENDCHAR
STARTCHAR ch-45
ENCODING 45
SWIDTH 1000 0
DWIDTH 16 0
BBX 16 16 0 -2
BITMAP
0000
78f8
0088
fc88
0088
7988
030f
0000
79fc
0084
00cc
7858
4830
4878
48cc
7b87
ENDCHAR
STARTCHAR ch-49
ENCODING 49
SWIDTH 1000 0
DWIDTH 16 0
BBX 16 16 0 -2
BITMAP
0040
7c40
0040
fefe
0090
7d10
0010
0010
7dff
0010
0010
7c10
4410
4410
4410
7c10
ENDCHAR
STARTCHAR ch-51
ENCODING 51
SWIDTH 1000 0
DWIDTH 16 0
BBX 16 16 0 -2
BITMAP
0000
7cfe
0082
fe82
0082
7c82
00fe
0090
7c90
0098
0088
7c88
448c
4484
4586
7d03
ENDCHAR
STARTCHAR ch-52
ENCODING 52
SWIDTH 1000 0
DWIDTH 16 0
BBX 16 16 0 -2
BITMAP
0006
7c1c
00f0
fe80
0080
7cff
0088
0088
7c88
00b8
008e
7c8b
4588
4508
4708
7c08
ENDCHAR
STARTCHAR ch-54
ENCODING 54
SWIDTH 1000 0
DWIDTH 16 0
BBX 16 16 0 -2
BITMAP
0000
7bff
0004
fc04
01e4
7924
0124
0124
7924
0124
01e4
7804
4804
4804
4804
781c
ENDCHAR
STARTCHAR ch-58
ENCODING 58
SWIDTH 1000 0
DWIDTH 16 0
BBX 16 16 0 -2
BITMAP
0010
7c38
0028
fe6c
00c6
7d93
0030
0064
7ccc
0018
0031
7ce3
4406
440c
4438
7ce0
ENDCHAR
STARTCHAR ch-59
ENCODING 59
SWIDTH 1000 0
DWIDTH 16 0
BBX 16 16 0 -2
BITMAP
0020
7c30
0010
fefe
0010
7c10
0010
0010
7cfe
0010
0010
7c10
4410
4410
45ff
7c00
ENDCHAR
STARTCHAR ch-60
ENCODING 60
SWIDTH 1000 0
DWIDTH 16 0
BBX 16 16 0 -2
BITMAP
0000
79fe
0010
fc10
0010
7890
0090
009e
7890
0090
0090
7890
4890
4890
4bff
7800
ENDCHAR
STARTCHAR ch-65
ENCODING 65
SWIDTH 1000 0
DWIDTH 16 0
BBX 16 16 0 -2
BITMAP
0010
7c10
0010
fe10
01ff
7c10
0010
0010
7c10
00fe
0082
7c82
4482
4482
4482
7cfe
ENDCHAR
STARTCHAR ch-70
ENCODING 70
SWIDTH 1000 0
DWIDTH 16 0
BBX 16 16 0 -2
BITMAP
0002
7c0e
00f8
fe88
0088
7c88
00ff
0088
7c88
0088
0088
7cec
4584
4405
45f7
7c02
ENDCHAR
STARTCHAR ch-72
ENCODING 72
SWIDTH 1000 0
DWIDTH 16 0
BBX 16 16 0 -2
BITMAP
7ffe
4442
4442
7ffe
0000
1ff8
0000
ffff
0000
1ff8
0000
1ff8
0000
3ffc
2004
3ffc
ENDCHAR
STARTCHAR ch-80
ENCODING 80
SWIDTH 1000 0
DWIDTH 16 0
BBX 16 16 0 -2
BITMAP
0040
7c40
0040
feff
0090
7d90
0010
001e
7c10
0010
0010
7c1e
4410
4410
4410
7c10
ENDCHAR
STARTCHAR ch-81
ENCODING 81
SWIDTH 1000 0
DWIDTH 16 0
BBX 16 16 0 -2
BITMAP
0010
7c10
0010
ffff
0101
7d01
0040
0046
7c5c
0070
0040
7c40
4440
4441
4463
7c3e
ENDCHAR
STARTCHAR ch-82
ENCODING 82
SWIDTH 1000 0
DWIDTH 16 0
BBX 16 16 0 -2
BITMAP
0020
7c20
0060
fe42
00c2
7c9f
01f1
0000
7c00
00fe
0082
7c82
4482
4482
4482
7cfe
ENDCHAR
STARTCHAR ch-84
ENCODING 84
SWIDTH 1000 0
DWIDTH 16 0
BBX 16 16 0 -2
BITMAP
0000
7dfe
0022
fe22
0062
7c46
00c4
018c
7c00
00fe
0082
7c82
4482
4482
4482
7cfe
ENDCHAR
STARTCHAR ch-85
ENCODING 85
SWIDTH 1000 0
DWIDTH 16 0
BBX 16 16 0 -2
BITMAP
0000
7cfe
0010
fe92
00d6
7c54
0054
0010
7dff
0010
0010
7c10
4410
4410
4410
7c10
ENDCHAR
STARTCHAR ch-91
ENCODING 91
SWIDTH 1000 0
DWIDTH 16 0
BBX 16 16 0 -2
BITMAP
0000
78fc
0084
fc84
0084
78fc
0084
0084
7884
0084
00fc
7884
4884
4884
4884
7bff
ENDCHAR
STARTCHAR ch-94
ENCODING 94
SWIDTH 1000 0
DWIDTH 16 0
BBX 16 16 0 -2
BITMAP
0000
7dfe
0002
fe02
00f2
7c02
0002
00f2
7c92
0092
0092
7cf2
4402
4402
4402
7c0e
ENDCHAR
STARTCHAR ch-96
ENCODING 96
SWIDTH 1000 0
DWIDTH 16 0
BBX 16 16 0 -2
BITMAP
00c0
7870
0010
fc00
01e0
7820
0022
03b6
78bc
00a8
00a8
79ac
4924
4b26
4e23
78e0
ENDCHAR
STARTCHAR ch-98
ENCODING 98
SWIDTH 1000 0
DWIDTH 16 0
BBX 16 16 0 -2
BITMAP
0080
7880
01fe
fd02
0302
78f2
0092
0092
78f2
0092
0092
78f2
4806
4804
4804
781c
ENDCHAR
STARTCHAR ch-99
ENCODING 99
SWIDTH 1000 0
DWIDTH 16 0
BBX 16 16 0 -2
BITMAP
0080
7c86
00fc
fe80
0081
7cc3
007e
0000
7c00
00fe
0082
7c82
44fe
4482
4482
7cfe
ENDCHAR
STARTCHAR ch-102
ENCODING 102
SWIDTH 1000 0
DWIDTH 16 0
BBX 16 16 0 -2
BITMAP
000a
7809
0009
fc08
03ff
7808
0008
03e8
7888
0088
0088
788c
48e4
4b85
4807
7802
ENDCHAR
STARTCHAR ch-105
ENCODING 105
SWIDTH 1000 0
DWIDTH 16 0
BBX 16 16 0 -2
BITMAP
0010
7c10
00fe
fe10
0010
7c10
01ff
0004
7c04
01ff
0004
7c84
44c4
4444
4404
7c1c
ENDCHAR
STARTCHAR ch-107
ENCODING 107
SWIDTH 1000 0
DWIDTH 16 0
BBX 16 16 0 -2
BITMAP
0010
7810
01ff
fd01
010d
7838
00e0
0020
7820
01ff
0020
7820
4820
4821
4833
781e
ENDCHAR
STARTCHAR ch-108
ENCODING 108
SWIDTH 1000 0
DWIDTH 16 0
BBX 16 16 0 -2
BITMAP
0006
7c1c
00f0
fe80
0080
7cff
0080
0080
7c80
00be
00a2
7ca2
4522
4422
4422
7c3e
ENDCHAR
STARTCHAR ch-109
ENCODING 109
SWIDTH 1000 0
DWIDTH 16 0
BBX 16 16 0 -2
BITMAP
0080
78fc
0188
fd10
03ff
7900
0100
017c
7944
0144
0144
794c
4940
4941
4a63
783e
ENDCHAR
STARTCHAR ch-110
ENCODING 110
SWIDTH 1000 0
DWIDTH 16 0
BBX 16 16 0 -2
BITMAP
0010
7c38
006c
fec6
0183
7c00
00fe
0010
7c10
0010
00fe
7c10
4410
4410
45ff
7c00
ENDCHAR
STARTCHAR ch-112
ENCODING 112
SWIDTH 1000 0
DWIDTH 16 0
BBX 16 16 0 -2
BITMAP
0010
7810
0010
fdff
0010
7810
0010
00fe
7800
0000
00fe
7882
4882
4882
4882
78fe
ENDCHAR
STARTCHAR ch-113
ENCODING 113
SWIDTH 1000 0
DWIDTH 16 0
BBX 16 16 0 -2
BITMAP
0006
7c1c
00f0
fe10
0010
7dff
0010
0010
7c10
0010
00fe
7c82
4482
4482
4482
7cfe
ENDCHAR
STARTCHAR ch-114
ENCODING 114
SWIDTH 1000 0
DWIDTH 16 0
BBX 16 16 0 -2
BITMAP
0010
7c10
0010
feff
0020
7c60
00c4
006c
7c18
0032
0066
7ccc
4418
4434
4466
7cc3
ENDCHAR
STARTCHAR ch-115
ENCODING 115
SWIDTH 1000 0
DWIDTH 16 0
BBX 16 16 0 -2
BITMAP
0082
7cc6
0044
fefe
0010
7c10
0010
00fe
7c10
0010
0010
7dff
4410
4410
4410
7c10
ENDCHAR
STARTCHAR ch-124
ENCODING 124
SWIDTH 1000 0
DWIDTH 16 0
BBX 16 16 0 -2
BITMAP
0000
79ff
0100
fd10
0112
7952
0156
0154
7950
0110
0138
7928
492c
4964
4a46
78c3
ENDCHAR
STARTCHAR ch-130
ENCODING 130
SWIDTH 1000 0
DWIDTH 16 0
BBX 16 16 0 -2
BITMAP
0048
7848
0349
fdcb
004e
7848
0048
0048
784e
01cb
0349
7848
48c8
4889
4989
7b07
ENDCHAR
STARTCHAR ch-132
ENCODING 132
SWIDTH 1000 0
DWIDTH 16 0
BBX 16 16 0 -2
BITMAP
0010
7c10
00fe
fe10
0010
7cfe
0010
0010
7dff
0054
0054
7cd6
4492
4593
4410
7c10
ENDCHAR
STARTCHAR ch-133
ENCODING 133
SWIDTH 1000 0
DWIDTH 16 0
BBX 16 16 0 -2
BITMAP
0010
7c50
0050
fefe
0090
7d90
0010
01ff
7c54
0054
0054
7cd6
4492
4593
4410
7c10
ENDCHAR
STARTCHAR ch-135
ENCODING 135
SWIDTH 1000 0
DWIDTH 16 0
BBX 16 16 0 -2
BITMAP
0010
7c10
01ff
fe28
0044
7d83
007c
0000
7dff
0020
0040
7cfe
4402
4402
4406
7c1c
ENDCHAR
STARTCHAR ch-137
ENCODING 137
SWIDTH 1000 0
DWIDTH 16 0
BBX 16 16 0 -2
BITMAP
2204
1108
ffff
0810
1bd8
1008
7ffe
c003
0ff0
0000
0ff0
0000
1ff8
1008
1008
1ff8
ENDCHAR
STARTCHAR ch-140
ENCODING 140
SWIDTH 1000 0
DWIDTH 16 0
BBX 16 16 0 -2
BITMAP
0010
7c10
0010
feff
0010
7c10
0010
00fe
7c00
0010
0018
7c2a
44a3
44a5
45a4
7d1c
ENDCHAR
STARTCHAR ch-141
ENCODING 141
SWIDTH 1000 0
DWIDTH 16 0
BBX 16 16 0 -2
BITMAP
0000
79fe
0022
fda2
00e2
7846
00e4
01ac
7800
0020
0030
7852
4943
4945
4b44
7a3c
ENDCHAR
STARTCHAR ch-145
ENCODING 145
SWIDTH 1000 0
DWIDTH 16 0
BBX 16 16 0 -2
BITMAP
0480
72be
0388
f908
0108
7388
0288
04be
7088
0188
0288
7488
5088
5088
51ff
7300
ENDCHAR
STARTCHAR ch-147
ENCODING 147
SWIDTH 1000 0
DWIDTH 16 0
BBX 16 16 0 -2
BITMAP
100e
fef8
1080
feff
1104
37e4
0000
ffff
0000
1ff8
0000
1ff8
0000
3ffc
2004
3ffc
ENDCHAR
STARTCHAR ch-149
ENCODING 149
SWIDTH 1000 0
DWIDTH 16 0
BBX 16 16 0 -2
BITMAP
0002
7bce
00b8
fc88
0108
7928
03ae
00a8
7aa8
02a8
02a8
7ba8
497e
4900
4bc0
7a7f
ENDCHAR
STARTCHAR ch-152
ENCODING 152
SWIDTH 1000 0
DWIDTH 16 0
BBX 16 16 0 -2
BITMAP
0006
781c
00f0
fc10
01ff
7854
00d6
0193
7800
00fc
0024
7827
4861
4841
48c1
7987
ENDCHAR
STARTCHAR ch-154
ENCODING 154
SWIDTH 1000 0
DWIDTH 16 0
BBX 16 16 0 -2
BITMAP
0010
7d11
0193
fe92
0010
7cfe
0082
0082
7cfe
0082
0082
7cfe
4482
4482
4482
7c8e
ENDCHAR
STARTCHAR ch-158
ENCODING 158
SWIDTH 1000 0
DWIDTH 16 0
BBX 16 16 0 -2
BITMAP
0000
79fe
0020
fe20
00fc
7c44
0044
0044
7dff
0000
00fe
7c82
4482
4482
4482
7cfe
ENDCHAR
STARTCHAR ch-160
ENCODING 160
SWIDTH 1000 0
DWIDTH 16 0
BBX 16 16 0 -2
BITMAP
000a
7809
0008
fdff
0108
7908
01e8
012a
792a
012a
012c
7924
4964
490d
4917
7a62
ENDCHAR
STARTCHAR ch-161
ENCODING 161
SWIDTH 1000 0
DWIDTH 16 0
BBX 16 16 0 -2
BITMAP
0014
7812
0010
fdff
0010
7950
0152
0152
7bf6
0154
015c
7948
495d
4a35
4867
79c2
ENDCHAR
STARTCHAR ch-163
ENCODING 163
SWIDTH 1000 0
DWIDTH 16 0
BBX 16 16 0 -2
BITMAP
0000
7800
01fe
fc20
0020
7924
0124
0124
7bae
02aa
06ab
7820
4820
4820
4bff
7800
ENDCHAR
STARTCHAR ch-164
ENCODING 164
SWIDTH 1000 0
DWIDTH 16 0
BBX 16 16 0 -2
BITMAP
0000
7cbc
00a4
fea4
00a4
7cbc
0080
0080
7cfe
0002
0002
7dff
4400
4444
44c6
7d83
ENDCHAR
STARTCHAR ch-165
ENCODING 165
SWIDTH 1000 0
DWIDTH 16 0
BBX 16 16 0 -2
BITMAP
0010
7c90
0090
fefe
0190
7d10
0010
01ff
7c00
0000
00fe
7c82
4482
4482
4482
7cfe
ENDCHAR
STARTCHAR ch-166
ENCODING 166
SWIDTH 1000 0
DWIDTH 16 0
BBX 16 16 0 -2
BITMAP
0000
79ff
0002
fc44
0028
79ff
0111
0111
79ff
0111
0111
79ff
4911
4911
4911
7913
ENDCHAR
STARTCHAR ch-168
ENCODING 168
SWIDTH 1000 0
DWIDTH 16 0
BBX 16 16 0 -2
BITMAP
0080
7880
01fe
fd00
0300
78fc
00a4
00a4
78a4
03ff
0124
7924
4924
49ff
4808
7838
ENDCHAR
STARTCHAR ch-172
ENCODING 172
SWIDTH 1000 0
DWIDTH 16 0
BBX 16 16 0 -2
BITMAP
0082
7cc6
0044
fe00
00fe
7c82
0082
0082
7cfe
0048
0048
7c48
4448
44c9
4489
7d87
ENDCHAR
STARTCHAR ch-173
ENCODING 173
SWIDTH 1000 0
DWIDTH 16 0
BBX 16 16 0 -2
BITMAP
0010
7810
01ff
fc10
0010
78fe
0000
01ff
7901
0149
0048
7848
4848
4849
48c9
7987
ENDCHAR
STARTCHAR ch-176
ENCODING 176
SWIDTH 1000 0
DWIDTH 16 0
BBX 16 16 0 -2
BITMAP
0044
7c4c
0048
feff
0088
7d88
0288
00fe
7c88
0088
0088
7cfe
4488
4488
4488
7cff
ENDCHAR
STARTCHAR ch-178
ENCODING 178
SWIDTH 1000 0
DWIDTH 16 0
BBX 16 16 0 -2
BITMAP
0000
79fe
0122
fd22
01fe
7922
0122
01fe
7820
03ff
00a8
78ac
49a4
4926
4b23
7820
ENDCHAR
STARTCHAR ch-185
ENCODING 185
SWIDTH 1000 0
DWIDTH 16 0
BBX 16 16 0 -2
BITMAP
0048
7848
0048
fdcf
0048
7848
0048
01cf
7848
0048
00c8
7b4f
4848
48c8
4888
7988
ENDCHAR
STARTCHAR ch-188
ENCODING 188
SWIDTH 1000 0
DWIDTH 16 0
BBX 16 16 0 -2
BITMAP
0020
7820
01fe
fd02
0102
78fc
0084
0084
78fc
0084
0084
78fc
4884
4884
4884
7bff
ENDCHAR
STARTCHAR ch-191
ENCODING 191
SWIDTH 1000 0
DWIDTH 16 0
BBX 16 16 0 -2
BITMAP
0000
79ff
0101
fd11
017d
7911
0111
017d
7901
017d
0145
7945
497d
4901
4901
7a07
ENDCHAR
STARTCHAR ch-194
ENCODING 194
SWIDTH 1000 0
DWIDTH 16 0
BBX 16 16 0 -2
BITMAP
0020
7c20
003f
fe61
0043
7cc2
018e
0000
7c30
00e7
0081
7c81
44e7
4481
4481
7cff
ENDCHAR
STARTCHAR ch-196
ENCODING 196
SWIDTH 1000 0
DWIDTH 16 0
BBX 16 16 0 -2
BITMAP
0010
7810
01ff
fc00
007c
7844
007c
0000
78fe
000c
0010
79ff
4810
4810
4810
7870
ENDCHAR
STARTCHAR ch-199
ENCODING 199
SWIDTH 1000 0
DWIDTH 16 0
BBX 16 16 0 -2
BITMAP
0010
7891
0093
fdba
0128
786c
00c6
0193
7810
0091
0093
79ba
4928
486c
48c6
7983
ENDCHAR
STARTCHAR ch-203
ENCODING 203
SWIDTH 1000 0
DWIDTH 16 0
BBX 16 16 0 -2
BITMAP
0010
7c10
01ff
fe10
00fe
7c10
01ff
0000
7cfe
0082
00fe
7c82
44fe
4482
4482
7c8e
ENDCHAR
STARTCHAR ch-204
ENCODING 204
SWIDTH 1000 0
DWIDTH 16 0
BBX 16 16 0 -2
BITMAP
0020
7820
03ff
fc20
01fc
7924
0124
01fc
7924
0124
01fc
78a8
48ac
49a6
4b23
7820
ENDCHAR
STARTCHAR ch-205
ENCODING 205
SWIDTH 1000 0
DWIDTH 16 0
BBX 16 16 0 -2
BITMAP
0006
783c
03e2
fd26
0094
79fe
0022
0022
7bff
0022
0022
79fe
4820
4820
4820
78e0
ENDCHAR
STARTCHAR ch-207
ENCODING 207
SWIDTH 1000 0
DWIDTH 16 0
BBX 16 16 0 -2
BITMAP
0000
77fe
0240
fa40
027e
73d2
0252
0256
7254
03dc
0248
7248
525c
53d4
5666
7043
ENDCHAR
STARTCHAR ch-210
ENCODING 210
SWIDTH 1000 0
DWIDTH 16 0
BBX 16 16 0 -2
BITMAP
0010
7810
0010
fdff
0000
78fe
0082
0082
7882
00fe
0010
7854
4854
48d6
4993
7830
ENDCHAR
STARTCHAR ch-214
ENCODING 214
SWIDTH 1000 0
DWIDTH 16 0
BBX 16 16 0 -2
BITMAP
0020
7870
00d8
fd8c
0307
78f8
0000
0000
79fe
0152
0152
79fe
4952
4952
4952
7956
ENDCHAR
STARTCHAR ch-218
ENCODING 218
SWIDTH 1000 0
DWIDTH 16 0
BBX 16 16 0 -2
BITMAP
0010
7810
01ff
fd01
0101
78fe
0010
0010
7890
009e
0090
7890
4890
49d0
4970
7b1f
ENDCHAR
STARTCHAR ch-219
ENCODING 219
SWIDTH 1000 0
DWIDTH 16 0
BBX 16 16 0 -2
BITMAP
0010
7810
01ff
fd11
0111
79ff
0111
0111
79ff
0028
0028
7828
486c
4844
48c6
7983
ENDCHAR
STARTCHAR ch-220
ENCODING 220
SWIDTH 1000 0
DWIDTH 16 0
BBX 16 16 0 -2
BITMAP
0124
7924
03ff
fd24
0124
793c
0100
01fe
7820
03ff
00a8
78a8
49ac
4926
4b23
7820
ENDCHAR
STARTCHAR ch-222
ENCODING 222
SWIDTH 1000 0
DWIDTH 16 0
BBX 16 16 0 -2
BITMAP
0000
7bff
0000
fdfe
0102
7902
01fe
0100
79ff
01a9
01a9
7aff
4aa9
48a9
48a9
78ab
ENDCHAR
STARTCHAR ch-224
ENCODING 224
SWIDTH 1000 0
DWIDTH 16 0
BBX 16 16 0 -2
BITMAP
0010
7810
01ff
fd01
0101
78fe
0000
00fe
7882
0082
00fe
7882
4882
48fe
4800
79ff
ENDCHAR
STARTCHAR ch-225
ENCODING 225
SWIDTH 1000 0
DWIDTH 16 0
BBX 16 16 0 -2
BITMAP
0048
78cc
0084
fdfe
0323
7840
007c
0004
780c
0038
0000
79fe
4952
4952
4952
7bff
ENDCHAR
STARTCHAR ch-226
ENCODING 226
SWIDTH 1000 0
DWIDTH 16 0
BBX 16 16 0 -2
BITMAP
0000
79ff
0101
fd11
00fe
7810
00fe
0092
78fe
0092
0092
78fe
4810
49ff
4810
7810
ENDCHAR
STARTCHAR ch-228
ENCODING 228
SWIDTH 1000 0
DWIDTH 16 0
BBX 16 16 0 -2
BITMAP
0000
79ef
0129
fd29
01ef
7800
00fe
0000
79ff
0020
0040
787e
4802
4802
4806
781c
ENDCHAR
STARTCHAR ch-230
ENCODING 230
SWIDTH 1000 0
DWIDTH 16 0
BBX 16 16 0 -2
BITMAP
0010
7810
01ff
fc44
006c
7828
01ff
0111
7911
00fe
0092
7892
4892
4896
4810
7810
ENDCHAR
STARTCHAR ch-231
ENCODING 231
SWIDTH 1000 0
DWIDTH 16 0
BBX 16 16 0 -2
BITMAP
0110
7916
01dc
fd10
0111
7913
01ce
0310
7820
01fe
0102
7902
49fe
4902
4902
79fe
ENDCHAR
STARTCHAR ch-235
ENCODING 235
SWIDTH 1000 0
DWIDTH 16 0
BBX 16 16 0 -2
BITMAP
0010
7810
01ff
fc10
00fe
7892
00d6
00ba
7892
00fe
0054
7854
48d6
4892
4993
7810
ENDCHAR
STARTCHAR ch-237
ENCODING 237
SWIDTH 1000 0
DWIDTH 16 0
BBX 16 16 0 -2
BITMAP
0020
7870
00d8
fd8c
0377
7800
03c2
0252
7a52
03d2
0252
7a52
4bc2
4a42
4a42
7ace
ENDCHAR
STARTCHAR ch-238
ENCODING 238
SWIDTH 1000 0
DWIDTH 16 0
BBX 16 16 0 -2
BITMAP
0010
7d10
01bf
fea9
000a
7c9c
0094
01b6
7d63
0000
00fe
7c82
4482
4482
4482
7cfe
ENDCHAR
STARTCHAR ch-241
ENCODING 241
SWIDTH 1000 0
DWIDTH 16 0
BBX 16 16 0 -2
BITMAP
0020
7cfc
0044
fe44
01ff
7c00
00fe
0082
7cfe
0008
00fe
7c48
4448
45ff
4408
7c08
ENDCHAR
STARTCHAR ch-243
ENCODING 243
SWIDTH 1000 0
DWIDTH 16 0
BBX 16 16 0 -2
BITMAP
0020
7820
01fe
fc84
00cc
7848
03ff
0000
78fc
0084
0084
78fc
4884
4884
4884
78fc
ENDCHAR
STARTCHAR ch-247
ENCODING 247
SWIDTH 1000 0
DWIDTH 16 0
BBX 16 16 0 -2
BITMAP
0000
7bfe
0202
fe1a
02f2
7a22
02fa
02aa
7aaa
02fa
0222
7a22
4a2a
4a3a
4cea
7803
ENDCHAR
STARTCHAR ch-248
ENCODING 248
SWIDTH 1000 0
DWIDTH 16 0
BBX 16 16 0 -2
BITMAP
0020
7c22
00fe
fe24
0024
7c28
01ff
0010
7c20
007e
01c2
7c42
447e
4442
4442
7c7e
ENDCHAR
STARTCHAR ch-250
ENCODING 250
SWIDTH 1000 0
DWIDTH 16 0
BBX 16 16 0 -2
BITMAP
0010
7810
01ff
fc44
0028
79ff
0104
011c
7972
0106
011c
7971
4903
4906
4a1c
7870
ENDCHAR
STARTCHAR ch-254
ENCODING 254
SWIDTH 1000 0
DWIDTH 16 0
BBX 16 16 0 -2
BITMAP
0044
7844
01ff
fc44
0044
7820
0020
01ff
7840
0040
00fe
7942
4842
4842
4842
787e
ENDCHAR
STARTCHAR ch-256
ENCODING 256
SWIDTH 1000 0
DWIDTH 16 0
BBX 16 16 0 -2
BITMAP
0084
7884
03ff
fc84
00fc
7884
0084
00fc
7820
03ff
00a8
78ac
49a4
4926
4b23
7820
ENDCHAR
STARTCHAR ch-257
ENCODING 257
SWIDTH 1000 0
DWIDTH 16 0
BBX 16 16 0 -2
BITMAP
0000
79fe
0102
fdfe
0102
79fe
0080
00ff
7981
0319
01f1
7901
4909
48fb
4802
780e
ENDCHAR
STARTCHAR ch-258
ENCODING 258
SWIDTH 1000 0
DWIDTH 16 0
BBX 16 16 0 -2
BITMAP
0000
7cfe
0092
fefe
0092
7c92
00fe
0000
7cfe
0082
00fe
7c82
44fe
4482
4482
7c86
ENDCHAR
STARTCHAR ch-260
ENCODING 260
SWIDTH 1000 0
DWIDTH 16 0
BBX 16 16 0 -2
BITMAP
00a4
79fe
4848
4bff
4884
797a
4a01
49fe
4800
78fc
4800
48fc
4800
49fe
c902
99fe
ENDCHAR
STARTCHAR ch-263
ENCODING 263
SWIDTH 1000 0
DWIDTH 16 0
BBX 16 16 0 -2
BITMAP
0100
7ffe
4422
5ffa
0420
1ff8
0420
ffff
0810
3ffc
e007
0ff0
0000
1ff8
1008
1ff8
ENDCHAR
STARTCHAR ch-268
ENCODING 268
SWIDTH 1000 0
DWIDTH 16 0
BBX 16 16 0 -2
BITMAP
0000
7bff
0004
fde4
0124
7924
01e4
000c
7800
03ff
0004
79e4
4924
4924
49e4
780c
ENDCHAR
STARTCHAR ch-270
ENCODING 270
SWIDTH 1000 0
DWIDTH 16 0
BBX 16 16 0 -2
BITMAP
0008
7a49
036b
fd2a
0008
787f
0008
039c
789c
00aa
00aa
78c9
4888
4988
4b40
7a3f
ENDCHAR
STARTCHAR ch-272
ENCODING 272
SWIDTH 1000 0
DWIDTH 16 0
BBX 16 16 0 -2
BITMAP
0020
7830
0054
fd4c
015a
7b53
0265
00cc
79b8
0000
0000
79fe
4952
4952
4952
7bff
ENDCHAR
STARTCHAR ch-276
ENCODING 276
SWIDTH 1000 0
DWIDTH 16 0
BBX 16 16 0 -2
BITMAP
0010
781e
0010
fdff
0101
7922
0138
01e0
7922
011e
0100
797e
4940
4a7e
4840
787e
ENDCHAR
STARTCHAR ch-278
ENCODING 278
SWIDTH 1000 0
DWIDTH 16 0
BBX 16 16 0 -2
BITMAP
0000
79fe
0122
fdfe
0122
79fe
0088
0188
7b0f
0080
00fe
7986
4b4c
4838
48ec
7b87
ENDCHAR
STARTCHAR ch-279
ENCODING 279
SWIDTH 1000 0
DWIDTH 16 0
BBX 16 16 0 -2
BITMAP
0020
7820
03ff
fc84
0048
7bff
0201
0221
7820
03ff
0040
787e
4842
48c2
4982
7b0e
ENDCHAR
STARTCHAR ch-281
ENCODING 281
SWIDTH 1000 0
DWIDTH 16 0
BBX 16 16 0 -2
BITMAP
0104
7888
03ff
fc50
01fe
7852
0052
03ff
7852
0052
01fe
7858
48d4
4956
4a53
7850
ENDCHAR
STARTCHAR ch-282
ENCODING 282
SWIDTH 1000 0
DWIDTH 16 0
BBX 16 16 0 -2
BITMAP
0082
78c6
0044
fc00
01ff
7844
0044
00c6
7882
0183
00fe
78aa
48aa
48aa
48aa
79ff
ENDCHAR
STARTCHAR ch-283
ENCODING 283
SWIDTH 1000 0
DWIDTH 16 0
BBX 16 16 0 -2
BITMAP
0048
7848
03ff
fc48
01fe
7848
03ff
0020
79fe
0122
01fe
7922
4bff
4902
4902
790e
ENDCHAR
STARTCHAR ch-285
ENCODING 285
SWIDTH 1000 0
DWIDTH 16 0
BBX 16 16 0 -2
BITMAP
0082
7102
03c2
fa42
025f
73c2
0242
0252
73ca
024a
0242
77c2
5142
5242
5442
70c6
ENDCHAR
STARTCHAR ch-288
ENCODING 288
SWIDTH 1000 0
DWIDTH 16 0
BBX 16 16 0 -2
BITMAP
0040
787c
00c4
fdac
0358
7830
00e0
0380
78fe
0120
0020
7bff
4820
4922
4922
79fe
ENDCHAR
STARTCHAR ch-289
ENCODING 289
SWIDTH 1000 0
DWIDTH 16 0
BBX 16 16 0 -2
BITMAP
0006
781c
00f0
fc00
0122
7894
0000
00fe
7810
0010
01ff
7810
4892
4892
4892
78fe
ENDCHAR
STARTCHAR ch-294
ENCODING 294
SWIDTH 1000 0
DWIDTH 16 0
BBX 16 16 0 -2
BITMAP
083c
ffa4
0847
7f00
2a7e
3e22
601c
cff3
0000
ffff
0000
1ff8
0000
1ff8
1008
1ff8
ENDCHAR
STARTCHAR ch-296
ENCODING 296
SWIDTH 1000 0
DWIDTH 16 0
BBX 16 16 0 -2
BITMAP
0044
7844
01ff
fc44
0044
78fe
0082
00fe
7882
00fe
0010
79ff
4828
486c
48c6
7983
ENDCHAR
STARTCHAR ch-299
ENCODING 299
SWIDTH 1000 0
DWIDTH 16 0
BBX 16 16 0 -2
BITMAP
0020
7820
03ff
fc84
0048
79fe
0102
0122
797a
0122
017a
794a
494a
497a
4902
7906
ENDCHAR
STARTCHAR ch-300
ENCODING 300
SWIDTH 1000 0
DWIDTH 16 0
BBX 16 16 0 -2
BITMAP
0000
7bde
0042
fd4a
00c6
794a
0022
0070
78dc
0387
0020
79c8
4832
49c4
4818
79e0
ENDCHAR
STARTCHAR ch-307
ENCODING 307
SWIDTH 1000 0
DWIDTH 16 0
BBX 16 16 0 -2
BITMAP
0000
7bff
0200
fe7c
0244
7a44
027c
0200
7a00
02ee
02aa
7aaa
4aaa
4aee
4a00
7bff
ENDCHAR
STARTCHAR ch-313
ENCODING 313
SWIDTH 1000 0
DWIDTH 16 0
BBX 16 16 0 -2
BITMAP
0044
7844
01ff
fc44
0000
78fe
0092
0092
78fe
0010
00fe
7810
48fe
4810
4810
79ff
ENDCHAR
STARTCHAR ch-318
ENCODING 318
SWIDTH 1000 0
DWIDTH 16 0
BBX 16 16 0 -2
BITMAP
00fc
7884
00fc
fc84
00fc
7800
03ff
0249
7bff
0000
03fe
7884
4848
4830
48ec
7b87
ENDCHAR
STARTCHAR ch-321
ENCODING 321
SWIDTH 1000 0
DWIDTH 16 0
BBX 16 16 0 -2
BITMAP
0048
7848
03ff
fc48
0000
79fe
00a4
00a4
7bff
00a4
00a4
79fe
4820
4bff
4820
7820
ENDCHAR
STARTCHAR ch-329
ENCODING 329
SWIDTH 1000 0
DWIDTH 16 0
BBX 16 16 0 -2
BITMAP
0004
79e8
0231
fd4a
0084
7b7b
0000
00fc
7884
0084
00fc
7800
4884
48cc
4848
7bff
ENDCHAR
STARTCHAR ch-332
ENCODING 332
SWIDTH 1000 0
DWIDTH 16 0
BBX 16 16 0 -2
BITMAP
000c
79f9
0243
fd22
01fc
7904
0104
01fe
7902
0102
03ff
7a01
4e15
4955
4943
7a0e
ENDCHAR
STARTCHAR ch-334
ENCODING 334
SWIDTH 1000 0
DWIDTH 16 0
BBX 16 16 0 -2
BITMAP
0000
79fe
0044
fc28
03ff
7852
0094
0130
7bff
0249
0289
7b7f
4a49
4a49
4a79
7a03
ENDCHAR
STARTCHAR ch-335
ENCODING 335
SWIDTH 1000 0
DWIDTH 16 0
BBX 16 16 0 -2
BITMAP
0092
7892
0114
fd55
0092
7914
0155
01d7
7812
01ff
0108
7989
494a
490c
4915
7a63
ENDCHAR
STARTCHAR ch-342
ENCODING 342
SWIDTH 1000 0
DWIDTH 16 0
BBX 16 16 0 -2
BITMAP
0042
7bff
014a
fd4a
03ff
78c6
016a
0253
7800
01fe
0102
7902
49fe
4902
4902
79fe
ENDCHAR
STARTCHAR ch-344
ENCODING 344
SWIDTH 1000 0
DWIDTH 16 0
BBX 16 16 0 -2
BITMAP
0088
788a
03eb
fc09
0228
7948
07ff
0008
7be9
0229
022a
7bee
4a24
4a25
4beb
7812
ENDCHAR
STARTCHAR ch-346
ENCODING 346
SWIDTH 1000 0
DWIDTH 16 0
BBX 16 16 0 -2
BITMAP
0000
7bff
0050
fdfe
0152
79fe
0000
00fc
7884
00fc
0084
78fc
4820
4bff
4820
7820
ENDCHAR
STARTCHAR ch-347
ENCODING 347
SWIDTH 1000 0
DWIDTH 16 0
BBX 16 16 0 -2
BITMAP
0084
7884
03df
fc84
0084
7bdf
0084
014a
7a01
01fe
0102
7902
49fe
4902
4902
79fe
ENDCHAR
STARTCHAR ch-348
ENCODING 348
SWIDTH 1000 0
DWIDTH 16 0
BBX 16 16 0 -2
BITMAP
0084
78cc
0048
fdfe
0048
794a
00cc
0048
7bff
0000
00fc
7884
48fc
4884
4884
78fc
ENDCHAR
STARTCHAR ch-351
ENCODING 351
SWIDTH 1000 0
DWIDTH 16 0
BBX 16 16 0 -2
BITMAP
787c
0044
fc44
007c
0000
79ef
0129
0129
79ef
0010
01ff
7854
4854
48d6
4993
7810
ENDCHAR
STARTCHAR ch-358
ENCODING 358
SWIDTH 1000 0
DWIDTH 16 0
BBX 16 16 0 -2
BITMAP
2420
ff20
247f
7ec4
c22c
7a18
4a2c
7dc3
0000
ffff
0000
1ff8
0000
3ffc
2004
3ffc
ENDCHAR
STARTCHAR ch-363
ENCODING 363
SWIDTH 1000 0
DWIDTH 16 0
BBX 16 16 0 -2
BITMAP
0078
7890
03ff
fd24
01c7
793c
0100
01ff
7900
013c
0100
793c
4900
497e
4a42
787e
ENDCHAR
STARTCHAR ch-364
ENCODING 364
SWIDTH 1000 0
DWIDTH 16 0
BBX 16 16 0 -2
BITMAP
3e10
22fe
3e44
20ff
7e10
52fe
d210
1e10
0100
ffff
0000
1ff8
0000
1ff8
1008
1ff8
ENDCHAR
STARTCHAR ch-367
ENCODING 367
SWIDTH 1000 0
DWIDTH 16 0
BBX 16 16 0 -2
BITMAP
0000
79fe
0152
fdfe
0020
79fe
0020
03ff
7884
0048
03ff
7820
49fe
4820
4820
7820
ENDCHAR
STARTCHAR ch-368
ENCODING 368
SWIDTH 1000 0
DWIDTH 16 0
BBX 16 16 0 -2
BITMAP
0104
7888
03fe
fc20
01fc
7820
03ff
0004
7bd2
0090
03ff
7892
48d4
4b89
4895
79a3
ENDCHAR
STARTCHAR ch-369
ENCODING 369
SWIDTH 1000 0
DWIDTH 16 0
BBX 16 16 0 -2
BITMAP
0820
7ffe
0100
3ffc
0100
ffff
0100
391c
0100
fd7f
0100
391c
0100
7d3e
4522
7d3e
ENDCHAR
STARTCHAR ch-370
ENCODING 370
SWIDTH 1000 0
DWIDTH 16 0
BBX 16 16 0 -2
BITMAP
0020
7820
03ff
fc84
0303
7848
01fe
0048
79fe
0048
03ff
7848
48ca
4b84
48e6
7b83
ENDCHAR
STARTCHAR ch-372
ENCODING 372
SWIDTH 1000 0
DWIDTH 16 0
BBX 16 16 0 -2
BITMAP
0008
793e
01aa
fcbe
0008
787f
0000
03be
78a2
00be
00a0
78be
48a2
49be
4940
7b3f
ENDCHAR
STARTCHAR ch-375
ENCODING 375
SWIDTH 1000 0
DWIDTH 16 0
BBX 16 16 0 -2
BITMAP
0048
7bff
0048
fc90
01fe
7b10
05fe
0110
79fe
0110
01ff
7800
4bfe
4884
4878
7b87
ENDCHAR
STARTCHAR ch-381
ENCODING 381
SWIDTH 1000 0
DWIDTH 16 0
BBX 16 16 0 -2
BITMAP
391c
21e4
391c
21c4
3a5c
2244
ffff
0810
1108
3ffc
c003
0ff0
0000
1ff8
1008
1ff8
ENDCHAR
STARTCHAR ch-384
ENCODING 384
SWIDTH 1000 0
DWIDTH 16 0
BBX 16 16 0 -2
BITMAP
0010
79ff
0010
fcfe
0000
79ff
0149
01ff
7882
00fe
0082
78fe
4882
48fe
4844
7983
ENDCHAR
STARTCHAR ch-387
ENCODING 387
SWIDTH 1000 0
DWIDTH 16 0
BBX 16 16 0 -2
BITMAP
0044
79ef
0044
fdef
0044
78aa
0101
00fe
7882
00fe
0082
78fe
4882
48fe
4844
7983
ENDCHAR
STARTCHAR ch-394
ENCODING 394
SWIDTH 1000 0
DWIDTH 16 0
BBX 16 16 0 -2
BITMAP
23c4
4008
d7ea
2004
4bc9
f81f
2bc5
a014
b3d6
aa55
23c4
1000
3ffe
c810
07e0
f81f
ENDCHAR
STARTCHAR ch-396
ENCODING 396
SWIDTH 1000 0
DWIDTH 16 0
BBX 16 16 0 -2
BITMAP
0088
7888
03ff
fc88
00f8
7904
0775
0156
7954
0154
0775
7903
4800
4952
4b5b
7a49
ENDCHAR
STARTCHAR ch-398
ENCODING 398
SWIDTH 1000 0
DWIDTH 16 0
BBX 16 16 0 -2
BITMAP
2409
25c9
4812
7fff
d014
53d4
5014
781f
53d4
5014
5014
7bdf
5254
5254
5254
7bdf
ENDCHAR
STARTCHAR ch-400
ENCODING 400
SWIDTH 1000 0
DWIDTH 16 0
BBX 16 16 0 -2
BITMAP
2424
7f7f
c8c8
7e7e
4848
7e7e
4848
ffff
0000
3ffc
0000
3ffc
0000
3ffc
2004
3ffc
ENDCHAR
STARTCHAR ch-402
ENCODING 402
SWIDTH 1000 0
DWIDTH 16 0
BBX 16 16 0 -2
BITMAP
0078
7890
03fe
fd02
01fe
7888
00ee
0089
79e7
0000
01fe
7922
49fe
4854
48d1
798f
ENDCHAR
STARTCHAR ch-403
ENCODING 403
SWIDTH 1000 0
DWIDTH 16 0
BBX 16 16 0 -2
BITMAP
0020
7bff
0000
fddc
0154
79dc
0088
01fe
7888
01fe
0088
7bff
4848
4b8a
48e4
7b83
ENDCHAR
STARTCHAR ch-406
ENCODING 406
SWIDTH 1000 0
DWIDTH 16 0
BBX 16 16 0 -2
BITMAP
0148
714a
02ab
faa9
0008
77ff
0148
036a
714a
036a
014e
7364
514c
51ed
5717
7022
ENDCHAR
STARTCHAR ch-409
ENCODING 409
SWIDTH 1000 0
DWIDTH 16 0
BBX 16 16 0 -2
BITMAP
0088
7bff
0088
fdde
0152
79de
0084
0088
79fe
0310
05fc
7910
49fc
4910
4910
79ff
ENDCHAR
STARTCHAR ch-410
ENCODING 410
SWIDTH 1000 0
DWIDTH 16 0
BBX 16 16 0 -2
BITMAP
0294
7bff
04a4
ffff
014a
796a
0253
01fe
7902
01fe
0102
79fe
4902
49fe
4884
7b03
ENDCHAR
ENDFONT
